<svg 
 xmlns="http://www.w3.org/2000/svg"
 xmlns:xlink="http://www.w3.org/1999/xlink"
 width="327px" height="868px">
<defs>
<filter filterUnits="userSpaceOnUse" id="Filter_0" x="121.5px" y="553.5px" width="49px" height="49px"  >
    <feOffset in="SourceAlpha" dx="0" dy="3" />
    <feGaussianBlur result="blurOut" stdDeviation="2.236" />
    <feFlood flood-color="rgb(254, 62, 87)" result="floodOut" />
    <feComposite operator="atop" in="floodOut" in2="blurOut" />
    <feComponentTransfer><feFuncA type="linear" slope="0.4"/></feComponentTransfer>
    <feMerge>
    <feMergeNode/>
    <feMergeNode in="SourceGraphic"/>
  </feMerge>
</filter>
<filter filterUnits="userSpaceOnUse" id="Filter_1" x="94.5px" y="223.5px" width="25px" height="24px"  >
    <feOffset in="SourceAlpha" dx="0" dy="3" />
    <feGaussianBlur result="blurOut" stdDeviation="2.236" />
    <feFlood flood-color="rgb(52, 195, 255)" result="floodOut" />
    <feComposite operator="atop" in="floodOut" in2="blurOut" />
    <feComponentTransfer><feFuncA type="linear" slope="0.4"/></feComponentTransfer>
    <feMerge>
    <feMergeNode/>
    <feMergeNode in="SourceGraphic"/>
  </feMerge>
</filter>
<filter filterUnits="userSpaceOnUse" id="Filter_2" x="189.5px" y="692.5px" width="22px" height="22px"  >
    <feOffset in="SourceAlpha" dx="0" dy="3" />
    <feGaussianBlur result="blurOut" stdDeviation="2.236" />
    <feFlood flood-color="rgb(52, 195, 255)" result="floodOut" />
    <feComposite operator="atop" in="floodOut" in2="blurOut" />
    <feComponentTransfer><feFuncA type="linear" slope="0.4"/></feComponentTransfer>
    <feMerge>
    <feMergeNode/>
    <feMergeNode in="SourceGraphic"/>
  </feMerge>
</filter>
<filter filterUnits="userSpaceOnUse" id="Filter_3" x="195.5px" y="444.5px" width="21px" height="21px"  >
    <feOffset in="SourceAlpha" dx="0" dy="3" />
    <feGaussianBlur result="blurOut" stdDeviation="2.236" />
    <feFlood flood-color="rgb(88, 0, 228)" result="floodOut" />
    <feComposite operator="atop" in="floodOut" in2="blurOut" />
    <feComponentTransfer><feFuncA type="linear" slope="0.4"/></feComponentTransfer>
    <feMerge>
    <feMergeNode/>
    <feMergeNode in="SourceGraphic"/>
  </feMerge>
</filter>
<filter filterUnits="userSpaceOnUse" id="Filter_4" x="25.5px" y="361.5px" width="21px" height="22px"  >
    <feOffset in="SourceAlpha" dx="0" dy="3" />
    <feGaussianBlur result="blurOut" stdDeviation="2.236" />
    <feFlood flood-color="rgb(255, 181, 52)" result="floodOut" />
    <feComposite operator="atop" in="floodOut" in2="blurOut" />
    <feComponentTransfer><feFuncA type="linear" slope="0.4"/></feComponentTransfer>
    <feMerge>
    <feMergeNode/>
    <feMergeNode in="SourceGraphic"/>
  </feMerge>
</filter>
<filter filterUnits="userSpaceOnUse" id="Filter_5" x="165.5px" y="73.5px" width="22px" height="22px"  >
    <feOffset in="SourceAlpha" dx="0" dy="3" />
    <feGaussianBlur result="blurOut" stdDeviation="2.236" />
    <feFlood flood-color="rgb(254, 62, 87)" result="floodOut" />
    <feComposite operator="atop" in="floodOut" in2="blurOut" />
    <feComponentTransfer><feFuncA type="linear" slope="0.4"/></feComponentTransfer>
    <feMerge>
    <feMergeNode/>
    <feMergeNode in="SourceGraphic"/>
  </feMerge>
</filter>

</defs>
<path fill-rule="evenodd"  stroke="rgb(236, 236, 236)" stroke-width="1px" stroke-linecap="butt" stroke-linejoin="miter" fill="none"
 d="M279.473,130.147 C279.473,130.147 238.733,263.711 216.051,313.393 C193.368,363.076 162.316,400.902 108.425,442.030 C54.535,483.157 29.119,576.660 118.996,689.594 C208.872,802.528 275.280,834.917 291.004,846.142 "/>
<path fill-rule="evenodd"  stroke="rgb(236, 236, 236)" stroke-width="1px" stroke-linecap="butt" stroke-linejoin="miter" fill="none"
 d="M282.356,1.510 C282.356,1.510 254.873,0.484 220.855,127.720 C186.838,254.955 170.442,290.261 144.941,336.451 C119.441,382.640 92.155,411.498 55.574,437.175 C18.993,462.853 -41.166,537.855 47.886,668.963 C136.938,800.072 297.830,899.380 324.637,854.637 "/>
<g filter="url(#Filter_0)">
<path fill-rule="evenodd"  stroke="rgb(254, 62, 87)" stroke-width="2px" stroke-linecap="butt" stroke-linejoin="miter" fill="none"
 d="M145.984,556.500 C155.658,556.500 163.500,564.559 163.500,574.500 C163.500,584.441 155.658,592.500 145.984,592.500 C136.311,592.500 128.469,584.441 128.469,574.500 C128.469,564.559 136.311,556.500 145.984,556.500 Z"/>
</g>
<g filter="url(#Filter_1)">
<path fill-rule="evenodd"  stroke="rgb(52, 195, 255)" stroke-width="2px" stroke-linecap="butt" stroke-linejoin="miter" fill="none"
 d="M106.969,226.500 C110.006,226.500 112.469,228.962 112.469,231.1000 C112.469,235.037 110.006,237.500 106.969,237.500 C103.931,237.500 101.469,235.037 101.469,231.1000 C101.469,228.962 103.931,226.500 106.969,226.500 Z"/>
</g>
<g filter="url(#Filter_2)">
<path fill-rule="evenodd"  fill="rgb(52, 195, 255)"
 d="M198.420,700.027 L194.625,696.070 C194.163,695.588 194.163,694.805 194.625,694.323 C195.088,693.841 195.838,693.841 196.301,694.323 L200.096,698.280 L203.891,694.323 C204.353,693.841 205.104,693.841 205.566,694.323 L205.566,694.323 C206.029,694.805 206.029,695.588 205.566,696.070 L201.771,700.027 L205.566,703.985 C206.029,704.468 206.029,705.249 205.566,705.732 L205.566,705.732 C205.104,706.214 204.353,706.214 203.891,705.732 L200.096,701.775 L196.301,705.732 C195.838,706.214 195.088,706.214 194.625,705.732 L194.625,705.732 C194.163,705.249 194.163,704.468 194.625,703.985 L198.420,700.027 Z"/>
</g>
<g filter="url(#Filter_3)">
<path fill-rule="evenodd"  fill="rgb(88, 0, 228)"
 d="M205.488,445.843 L211.146,451.500 L205.488,457.156 L199.831,451.500 L205.488,445.843 Z"/>
</g>
<g filter="url(#Filter_4)">
<path fill-rule="evenodd"  fill="rgb(255, 181, 52)"
 d="M33.775,368.694 L29.980,364.737 C29.517,364.254 29.517,363.472 29.980,362.990 C30.443,362.508 31.193,362.508 31.655,362.990 L35.451,366.947 L39.246,362.990 C39.708,362.508 40.459,362.508 40.921,362.990 L40.921,362.990 C41.384,363.472 41.384,364.254 40.921,364.737 L37.126,368.694 L40.921,372.652 C41.384,373.134 41.384,373.916 40.921,374.398 L40.921,374.398 C40.459,374.880 39.708,374.880 39.246,374.398 L35.451,370.441 L31.655,374.398 C31.193,374.880 30.443,374.880 29.980,374.398 L29.980,374.398 C29.517,373.916 29.517,373.134 29.980,372.652 L33.775,368.694 Z"/>
</g>
<g filter="url(#Filter_5)">
<path fill-rule="evenodd"  fill="rgb(254, 62, 87)"
 d="M174.066,81.049 L170.271,77.092 C169.808,76.609 169.808,75.827 170.271,75.345 C170.734,74.862 171.484,74.862 171.947,75.345 L175.742,79.302 L179.537,75.345 C179.1000,74.862 180.750,74.862 181.212,75.345 L181.212,75.345 C181.675,75.827 181.675,76.609 181.212,77.092 L177.417,81.049 L181.212,85.006 C181.675,85.489 181.675,86.272 181.212,86.754 L181.212,86.754 C180.750,87.236 179.1000,87.236 179.537,86.754 L175.742,82.797 L171.947,86.754 C171.484,87.236 170.734,87.236 170.271,86.754 L170.271,86.754 C169.808,86.272 169.808,85.489 170.271,85.006 L174.066,81.049 Z"/>
</g>
</svg>