<svg 
 xmlns="http://www.w3.org/2000/svg"
 xmlns:xlink="http://www.w3.org/1999/xlink"
 width="253px" height="670px">
<defs>
<filter filterUnits="userSpaceOnUse" id="Filter_0" x="121.5px" y="209.5px" width="41px" height="42px"  >
    <feOffset in="SourceAlpha" dx="0" dy="3" />
    <feGaussianBlur result="blurOut" stdDeviation="2.236" />
    <feFlood flood-color="rgb(254, 62, 87)" result="floodOut" />
    <feComposite operator="atop" in="floodOut" in2="blurOut" />
    <feComponentTransfer><feFuncA type="linear" slope="0.4"/></feComponentTransfer>
    <feMerge>
    <feMergeNode/>
    <feMergeNode in="SourceGraphic"/>
  </feMerge>
</filter>
<filter filterUnits="userSpaceOnUse" id="Filter_1" x="157.5px" y="466.5px" width="22px" height="22px"  >
    <feOffset in="SourceAlpha" dx="0" dy="3" />
    <feGaussianBlur result="blurOut" stdDeviation="2.236" />
    <feFlood flood-color="rgb(52, 195, 255)" result="floodOut" />
    <feComposite operator="atop" in="floodOut" in2="blurOut" />
    <feComponentTransfer><feFuncA type="linear" slope="0.4"/></feComponentTransfer>
    <feMerge>
    <feMergeNode/>
    <feMergeNode in="SourceGraphic"/>
  </feMerge>
</filter>
<filter filterUnits="userSpaceOnUse" id="Filter_2" x="88.5px" y="123.5px" width="19px" height="19px"  >
    <feOffset in="SourceAlpha" dx="0" dy="3" />
    <feGaussianBlur result="blurOut" stdDeviation="2.236" />
    <feFlood flood-color="rgb(52, 195, 255)" result="floodOut" />
    <feComposite operator="atop" in="floodOut" in2="blurOut" />
    <feComponentTransfer><feFuncA type="linear" slope="0.4"/></feComponentTransfer>
    <feMerge>
    <feMergeNode/>
    <feMergeNode in="SourceGraphic"/>
  </feMerge>
</filter>
<filter filterUnits="userSpaceOnUse" id="Filter_3" x="84.5px" y="315.5px" width="18px" height="18px"  >
    <feOffset in="SourceAlpha" dx="0" dy="3" />
    <feGaussianBlur result="blurOut" stdDeviation="2.236" />
    <feFlood flood-color="rgb(88, 0, 228)" result="floodOut" />
    <feComposite operator="atop" in="floodOut" in2="blurOut" />
    <feComponentTransfer><feFuncA type="linear" slope="0.4"/></feComponentTransfer>
    <feMerge>
    <feMergeNode/>
    <feMergeNode in="SourceGraphic"/>
  </feMerge>
</filter>
<filter filterUnits="userSpaceOnUse" id="Filter_4" x="212.5px" y="362.5px" width="19px" height="19px"  >
    <feOffset in="SourceAlpha" dx="0" dy="3" />
    <feGaussianBlur result="blurOut" stdDeviation="2.236" />
    <feFlood flood-color="rgb(255, 181, 52)" result="floodOut" />
    <feComposite operator="atop" in="floodOut" in2="blurOut" />
    <feComponentTransfer><feFuncA type="linear" slope="0.4"/></feComponentTransfer>
    <feMerge>
    <feMergeNode/>
    <feMergeNode in="SourceGraphic"/>
  </feMerge>
</filter>
<filter filterUnits="userSpaceOnUse" id="Filter_5" x="217.5px" y="74.5px" width="19px" height="20px"  >
    <feOffset in="SourceAlpha" dx="0" dy="3" />
    <feGaussianBlur result="blurOut" stdDeviation="2.236" />
    <feFlood flood-color="rgb(255, 181, 52)" result="floodOut" />
    <feComposite operator="atop" in="floodOut" in2="blurOut" />
    <feComponentTransfer><feFuncA type="linear" slope="0.4"/></feComponentTransfer>
    <feMerge>
    <feMergeNode/>
    <feMergeNode in="SourceGraphic"/>
  </feMerge>
</filter>
<filter filterUnits="userSpaceOnUse" id="Filter_6" x="107.5px" y="599.5px" width="18px" height="20px"  >
    <feOffset in="SourceAlpha" dx="0" dy="3" />
    <feGaussianBlur result="blurOut" stdDeviation="2.236" />
    <feFlood flood-color="rgb(254, 62, 87)" result="floodOut" />
    <feComposite operator="atop" in="floodOut" in2="blurOut" />
    <feComponentTransfer><feFuncA type="linear" slope="0.4"/></feComponentTransfer>
    <feMerge>
    <feMergeNode/>
    <feMergeNode in="SourceGraphic"/>
  </feMerge>
</filter>

</defs>
<path fill-rule="evenodd"  stroke="rgb(236, 236, 236)" stroke-width="1px" stroke-linecap="butt" stroke-linejoin="miter" fill="none"
 d="M36.302,568.303 C36.302,568.303 67.585,465.499 85.003,427.258 C102.420,389.017 126.265,359.902 167.647,328.246 C209.028,296.591 228.545,224.621 159.530,137.695 C90.515,50.770 39.521,25.840 27.447,17.200 "/>
<path fill-rule="evenodd"  stroke="rgb(236, 236, 236)" stroke-width="1px" stroke-linecap="butt" stroke-linejoin="miter" fill="none"
 d="M34.088,667.315 C34.088,667.315 55.192,668.105 81.313,570.171 C107.434,472.238 120.025,445.063 139.607,409.510 C159.188,373.959 180.141,351.747 208.231,331.983 C236.321,312.219 282.516,254.489 214.134,153.575 C145.752,52.660 22.205,-23.777 1.621,10.661 "/>
<g filter="url(#Filter_0)">
<path fill-rule="evenodd"  stroke="rgb(254, 62, 87)" stroke-width="2px" stroke-linecap="butt" stroke-linejoin="miter" fill="none"
 d="M141.828,213.437 C149.258,213.437 155.281,219.635 155.281,227.281 C155.281,234.927 149.258,241.125 141.828,241.125 C134.398,241.125 128.375,234.927 128.375,227.281 C128.375,219.635 134.398,213.437 141.828,213.437 Z"/>
</g>
<g filter="url(#Filter_1)">
<path fill-rule="evenodd"  stroke="rgb(52, 195, 255)" stroke-width="2px" stroke-linecap="butt" stroke-linejoin="miter" fill="none"
 d="M167.781,469.687 C170.111,469.687 171.1000,471.583 171.1000,473.922 C171.1000,476.260 170.111,478.156 167.781,478.156 C165.451,478.156 163.562,476.260 163.562,473.922 C163.562,471.583 165.451,469.687 167.781,469.687 Z"/>
</g>
<g filter="url(#Filter_2)">
<path fill-rule="evenodd"  fill="rgb(52, 195, 255)"
 d="M98.541,129.664 L101.455,132.711 C101.810,133.081 101.810,133.684 101.455,134.055 C101.100,134.427 100.524,134.427 100.168,134.055 L97.254,131.009 L94.340,134.055 C93.985,134.427 93.409,134.427 93.053,134.055 L93.053,134.055 C92.698,133.684 92.698,133.081 93.053,132.711 L95.968,129.664 L93.053,126.618 C92.698,126.247 92.698,125.645 93.053,125.273 L93.053,125.273 C93.409,124.902 93.985,124.902 94.340,125.273 L97.254,128.320 L100.168,125.273 C100.524,124.902 101.100,124.902 101.455,125.273 L101.455,125.273 C101.810,125.645 101.810,126.247 101.455,126.618 L98.541,129.664 Z"/>
</g>
<g filter="url(#Filter_3)">
<path fill-rule="evenodd"  fill="rgb(88, 0, 228)"
 d="M93.113,325.311 L88.769,320.957 L93.113,316.603 L97.457,320.957 L93.113,325.311 Z"/>
</g>
<g filter="url(#Filter_4)">
<path fill-rule="evenodd"  fill="rgb(255, 181, 52)"
 d="M222.973,368.703 L225.887,371.749 C226.243,372.121 226.243,372.723 225.887,373.094 C225.532,373.465 224.956,373.465 224.601,373.094 L221.687,370.048 L218.772,373.094 C218.417,373.465 217.841,373.465 217.486,373.094 L217.486,373.094 C217.131,372.723 217.131,372.121 217.486,371.749 L220.400,368.703 L217.486,365.658 C217.131,365.286 217.131,364.684 217.486,364.313 L217.486,364.313 C217.841,363.941 218.417,363.941 218.772,364.313 L221.687,367.359 L224.601,364.313 C224.956,363.941 225.532,363.941 225.887,364.313 L225.887,364.313 C226.243,364.684 226.243,365.286 225.887,365.658 L222.973,368.703 Z"/>
</g>
<g filter="url(#Filter_5)">
<path fill-rule="evenodd"  fill="rgb(255, 181, 52)"
 d="M227.964,80.892 L230.879,83.938 C231.234,84.309 231.234,84.911 230.879,85.283 C230.523,85.654 229.947,85.654 229.592,85.283 L226.678,82.237 L223.764,85.283 C223.408,85.654 222.832,85.654 222.477,85.283 L222.477,85.283 C222.122,84.911 222.122,84.309 222.477,83.938 L225.391,80.892 L222.477,77.847 C222.122,77.475 222.122,76.873 222.477,76.502 L222.477,76.502 C222.832,76.130 223.408,76.130 223.764,76.502 L226.678,79.548 L229.592,76.502 C229.947,76.130 230.523,76.130 230.879,76.502 L230.879,76.502 C231.234,76.873 231.234,77.475 230.879,77.847 L227.964,80.892 Z"/>
</g>
<g filter="url(#Filter_6)">
<path fill-rule="evenodd"  fill="rgb(254, 62, 87)"
 d="M117.242,606.094 L120.156,609.140 C120.511,609.511 120.511,610.113 120.156,610.485 C119.801,610.856 119.225,610.856 118.870,610.485 L115.955,607.439 L113.041,610.485 C112.686,610.856 112.110,610.856 111.755,610.485 L111.754,610.485 C111.399,610.113 111.399,609.511 111.754,609.140 L114.669,606.094 L111.754,603.048 C111.399,602.677 111.399,602.075 111.754,601.703 L111.755,601.703 C112.110,601.332 112.686,601.332 113.041,601.703 L115.955,604.749 L118.870,601.703 C119.225,601.332 119.801,601.332 120.156,601.703 L120.156,601.703 C120.511,602.075 120.511,602.677 120.156,603.048 L117.242,606.094 Z"/>
</g>
</svg>